<?xml version="1.0" encoding="UTF-8" standalone="no"?>
<svg width="117px" height="24px" viewBox="0 0 117 24" version="1.1" xmlns="http://www.w3.org/2000/svg" xmlns:xlink="http://www.w3.org/1999/xlink">
    <!-- Generator: Sketch 40.1 (33804) - http://www.bohemiancoding.com/sketch -->
    <title>Group 3</title>
    <desc>Created with Sketch.</desc>
    <defs></defs>
    <g id="Page-1" stroke="none" stroke-width="1" fill="none" fill-rule="evenodd">
        <g id="home" transform="translate(-130.000000, -40.000000)" fill="#1C1B1B">
            <g id="Group-3" transform="translate(129.000000, 38.000000)">
                <text id="Horn" font-family="HelveticaNeue-Medium, Helvetica Neue" font-size="24" font-weight="400">
                    <tspan x="0" y="23">Horn</tspan>
                </text>
                <g id="Group-2" transform="translate(63.000000, 2.000000)">
                    <g id="wifi" transform="translate(47.469761, 12.613793) rotate(-270.000000) translate(-47.469761, -12.613793) translate(36.469761, 5.113793)">
                        <g id="Capa_1" transform="translate(-0.000000, 0.000000)">
                            <g id="Group">
                                <path d="M10.7821606,0.0534925357 C6.70915346,0.0534925357 2.88004422,1.59369648 -7.10542736e-14,4.39033988 L1.64442102,5.98714148 C4.08521653,3.61702695 7.3303808,2.31175262 10.7821606,2.31175262 C14.234013,2.31175262 17.4791046,3.61702695 19.9199001,5.98714148 L21.5643211,4.39033988 C18.6844223,1.59369648 14.8551677,0.0534925357 10.7821606,0.0534925357 L10.7821606,0.0534925357 Z" id="Shape"></path>
                                <path d="M2.92103302,7.22678512 L4.56545404,8.82358671 C6.22600895,7.21111844 8.43373519,6.32305766 10.7821606,6.32305766 C13.1305133,6.32305766 15.3383122,7.21104787 16.9987217,8.82358671 L18.6432881,7.22678512 C16.5436298,5.18778798 13.7518133,4.06486815 10.7821606,4.06486815 C7.81250786,4.06486815 5.02076396,5.18778798 2.92103302,7.22678512 L2.92103302,7.22678512 Z" id="Shape"></path>
                                <path d="M5.84540909,10.0666177 L7.48997546,11.6634193 C8.36934499,10.8093736 9.53854309,10.3390909 10.7823059,10.3390909 C12.0259234,10.3390909 13.1951942,10.8093736 14.0745637,11.6634193 L15.7191301,10.0666177 C14.4004391,8.78611371 12.6472234,8.08083086 10.7823059,8.08083086 C8.91724308,8.08083086 7.16402734,8.78604314 5.84540909,10.0666177 L5.84540909,10.0666177 Z" id="Shape"></path>
                                <path d="M10.7822332,12.5677819 C10.1779392,12.5677819 9.57371787,12.7915614 9.11259394,13.2391909 C9.09646005,13.2548576 9.08134361,13.2710182 9.06579113,13.2869672 L10.7820879,14.9585737 L12.5028178,13.2916249 C12.4858845,13.2740528 12.4691692,13.2563395 12.4515818,13.2392615 C11.9906033,12.7915614 11.3864546,12.5677819 10.7822332,12.5677819 L10.7822332,12.5677819 Z" id="Shape"></path>
                            </g>
                        </g>
                    </g>
                    <g id="noun_174_cc" transform="translate(19.715385, 12.000000) scale(-1, 1) translate(-19.715385, -12.000000) translate(0.215385, 0.000000)">
                        <g id="Group">
                            <path d="M38.2153846,9.03578824 C38.2153846,8.79640941 38.0766628,8.60162824 37.7632966,8.60162824 C37.4957889,8.60162824 37.1514683,8.67710118 36.9924923,9.00224471 C36.5663908,9.87933176 34.0770406,10.1964706 29.0887865,10.1964706 L24.3997588,10.1964706 C5.80720985,10.1964706 1.74300369,5.83428706 1.74300369,0.495910588 C1.743768,0.222225882 1.52059015,0 1.24620369,0 L0.497182154,0 C0.222413538,0 -5.68434189e-14,0.222225882 -5.68434189e-14,0.495910588 L-5.68434189e-14,23.1835341 C-5.68434189e-14,23.4576 0.222413538,23.6794447 0.497182154,23.6794447 L1.24620369,23.6794447 C1.52059015,23.6794447 1.743768,23.4576 1.743768,23.1835341 C1.743768,19.8143153 3.35110708,16.7942541 9.23130831,15.0938259 C9.51410215,15.0118729 9.632952,15.1338494 9.43384985,15.5009224 C9.13424123,16.0543906 8.982144,16.6421647 8.982144,17.2474729 C8.982144,20.85264 14.5764942,23.7762635 21.4770462,23.7762635 C28.3787446,23.7762635 33.9730948,20.85264 33.9730948,17.2474729 C33.9730948,16.05744 33.3562985,14.9501224 32.2996431,13.9804094 C32.0462751,13.7490353 32.1009231,13.53672 32.4054997,13.5473929 C35.2066874,13.6506918 36.6733938,14.0223388 36.9921102,14.6775812 C37.1510862,15.0019624 37.4950246,15.0785788 37.7629145,15.0785788 C38.0758985,15.0785788 38.2150025,14.8830353 38.2150025,14.6436565 C38.2153846,13.1616424 38.2153846,11.3243718 38.2153846,9.03578824 L38.2153846,9.03578824 Z M21.4701674,21.3260612 C16.2117305,21.3260612 11.9575938,19.5551153 11.9575938,17.2478541 C11.9575938,15.6888424 13.4044283,13.9735482 19.5857668,13.5618776 C20.338992,13.5119435 22.7102566,13.4726824 23.4038658,13.4623906 C26.8199391,13.4124565 30.9815945,14.7096 30.9815945,17.2478541 C30.9815945,19.5554965 26.72784,21.3260612 21.4701674,21.3260612 L21.4701674,21.3260612 Z" id="Shape"></path>
                        </g>
                    </g>
                </g>
            </g>
        </g>
    </g>
</svg>