<?xml version="1.0" encoding="UTF-8" standalone="no"?>
<svg width="61px" height="61px" viewBox="0 0 61 61" version="1.1" xmlns="http://www.w3.org/2000/svg" xmlns:xlink="http://www.w3.org/1999/xlink">
    <!-- Generator: Sketch 40.1 (33804) - http://www.bohemiancoding.com/sketch -->
    <title>Shape</title>
    <desc>Created with Sketch.</desc>
    <defs></defs>
    <g id="Page-1" stroke="none" stroke-width="1" fill="none" fill-rule="evenodd">
        <g id="notification_sent" transform="translate(-157.000000, -229.000000)" fill="#8BC34A">
            <g id="Group-4" transform="translate(109.000000, 229.000000)">
                <g id="noun_367676_cc" transform="translate(48.000000, 0.000000)">
                    <g id="Group">
                        <path d="M51.6668471,9.08131874 C39.9492569,-2.63385767 20.9602195,-2.63144391 9.24504311,9.08131874 C-2.47254707,20.8013227 -2.47496083,39.7927738 9.24262935,51.5079502 C20.9578058,63.2255404 39.9540844,63.2279541 51.6716746,51.510364 C63.386851,39.7976013 63.3820235,20.7989089 51.6668471,9.08131874 L51.6668471,9.08131874 Z M45.0157358,21.1271801 L28.0059803,43.397722 C27.459264,44.1121945 26.6337586,44.5309815 25.7382543,44.5527054 L25.7334268,44.5527054 L25.6694622,44.5527054 C24.7993023,44.5527054 23.982245,44.1737453 23.4282875,43.5111686 L16.139944,34.895258 C15.6354685,34.2990597 15.3928858,33.5375189 15.4592641,32.7554612 C15.5256425,31.9734035 15.89012,31.2613447 16.4875252,30.7568692 C17.6425086,29.7780902 19.6555831,29.9482601 20.6295346,31.1008298 L25.5584293,36.9276426 L40.3451133,17.560852 C41.2647552,16.3588003 43.2561059,16.0872525 44.4629851,17.0068945 C45.0881485,17.4836117 45.4888324,18.1739467 45.592624,18.9511769 C45.6940019,19.7320277 45.4912462,20.5020166 45.0157358,21.1271801 L45.0157358,21.1271801 Z" id="Shape"></path>
                    </g>
                </g>
            </g>
        </g>
    </g>
</svg>