<?xml version="1.0" encoding="UTF-8" standalone="no"?>
<svg width="50px" height="56px" viewBox="0 0 50 56" version="1.1" xmlns="http://www.w3.org/2000/svg" xmlns:xlink="http://www.w3.org/1999/xlink">
    <!-- Generator: Sketch 40.1 (33804) - http://www.bohemiancoding.com/sketch -->
    <title>bell</title>
    <desc>Created with Sketch.</desc>
    <defs></defs>
    <g id="Page-1" stroke="none" stroke-width="1" fill="none" fill-rule="evenodd">
        <g id="home" transform="translate(-163.000000, -516.000000)" fill="#1C1B1B">
            <g id="bell" transform="translate(163.000000, 516.000000)">
                <g id="Capa_1">
                    <path d="M42.9171633,34.8515042 L42.9171633,23.5513839 C42.8801566,14.8370638 37.4119807,6.50974729 29.2299823,4.39374248 C29.2299823,4.39374248 28.9603622,0 24.940733,0 C20.8611883,0 20.6567705,4.26666667 20.6567705,4.26666667 C12.4765343,6.37689531 7.07356055,14.8370638 7.02950499,23.5513839 L7.02950499,34.4895307 C7.02950499,39.8344164 3.81168696,40.7547533 0,45.1119134 L49.8849905,45.1119134 C46.0733036,40.7547533 42.9171633,40.1963899 42.9171633,34.8515042 L42.9171633,34.8515042 Z M24.940733,56 C29.32338,56 32.9852781,52.1761733 33.9756471,47.2876053 L15.9075812,47.2876053 C16.8997124,52.1780987 20.5616105,56 24.940733,56 L24.940733,56 Z" id="_x3C_Compound_Path_x3E__6_"></path>
                </g>
            </g>
        </g>
    </g>
</svg>